<svg xmlns="http://www.w3.org/2000/svg" width="20" height="20" viewBox="0 0 20 20">
  <g id="グループ_3643" data-name="グループ 3643" transform="translate(-13290 274.173)">
    <rect id="長方形_18021" data-name="長方形 18021" width="20" height="20" transform="translate(13290 -274.173)" opacity="0"/>
    <g id="グループ_3639" data-name="グループ 3639" transform="translate(13292.022 -271.621)">
      <path id="パス_291" data-name="パス 291" d="M-86.74,2.55a5.141,5.141,0,0,0-5.135,5.135A5.141,5.141,0,0,0-86.74,12.82,5.141,5.141,0,0,0-81.6,7.685,5.141,5.141,0,0,0-86.74,2.55Zm0,8.684a3.553,3.553,0,0,1-3.549-3.549A3.553,3.553,0,0,1-86.74,4.136a3.554,3.554,0,0,1,3.549,3.549A3.553,3.553,0,0,1-86.74,11.234Z" transform="translate(91.875 -2.55)" fill="#000"/>
      <rect id="長方形_18002" data-name="長方形 18002" width="1.586" height="7.29" transform="translate(9.313 10.434) rotate(-45)" fill="#000"/>
    </g>
  </g>
</svg>
